<?xml version="1.0" encoding="utf-8"?>
<!-- Generator: Adobe Illustrator 27.5.0, SVG Export Plug-In . SVG Version: 6.00 Build 0)  -->
<svg version="1.1" xmlns="http://www.w3.org/2000/svg" xmlns:xlink="http://www.w3.org/1999/xlink" x="0px" y="0px"
	 viewBox="0 0 500 500" style="enable-background:new 0 0 500 500;" xml:space="preserve">
<g id="BACKGROUND">
	<rect style="fill:#F7F7F7;" width="500" height="500"/>
</g>
<g id="OBJECTS">
	<g>
		<g>
			<defs>
				<rect id="SVGID_1_" width="500" height="500"/>
			</defs>
			<clipPath id="SVGID_00000116193445594047672060000014489385892275133318_">
				<use xlink:href="#SVGID_1_"  style="overflow:visible;"/>
			</clipPath>
			<g style="clip-path:url(#SVGID_00000116193445594047672060000014489385892275133318_);">
				<g>
					<g>
						<path style="fill:#25DFE8;" d="M236.974,284.711c-0.002-1.055-0.025-2.16-0.078-3.284c-0.001-0.147-0.003-0.21-0.003-0.21
							c-0.001,0.009-0.004,0.026-0.005,0.035c-0.138-2.735-0.481-5.567-1.322-8.021c-0.334-0.974-0.744-1.923-1.217-2.838
							c1.197-3.757,1.521-7.974,1.51-11.817c-0.001-0.658-0.021-1.315-0.054-1.969c0-0.018,0-0.03-0.001-0.048
							c0,0.003-0.001,0.009-0.001,0.012c-0.463-9.027-3.985-17.441-12.516-21.662v8.703c5.127,2.557,8.775,6.917,10.965,12.221
							c0.486,1.178,0.797,2.415,1.073,3.656c-0.081,0.39-0.164,0.753-0.236,1.037c-0.587,2.274-1.77,4.29-3.236,6.084
							c-3.401-4.129-8.32-6.921-13.805-6.938c-3.071-0.009-7.424,0.304-9.018,3.415c-0.224,0.438-0.366,0.949-0.476,1.486
							c-0.001-0.023-0.006-0.045-0.007-0.068c-0.663,2.893-0.247,4.629,0.021,6.473c0.081,0.879,0.156,1.705,0.176,2.411
							c0.185,6.646,9.97,8.699,14.905,7.551c3.786-0.88,6.42-2.886,8.256-5.496c1.55,1.992,2.784,4.233,3.66,6.478
							c0.314,0.807,0.549,1.637,0.741,2.478c-0.139,0.666-0.276,1.258-0.378,1.568c-0.698,2.11-2.003,3.885-3.553,5.433
							c-1.725-2.326-4.063-4.143-7.029-4.963c-4.09-1.134-5.56,2.973-5.591,6.177c-0.034,3.372-1.463,10.576,2.846,12.179
							c3.337,1.242,7.016-1.391,9.751-4.614c0.956,1.237,1.716,2.43,2.156,3.331c0.538,1.102,0.852,2.297,1.088,3.498
							c-0.07,0.423-0.145,0.846-0.221,1.266c-0.727,4.013-2.205,7.883-3.826,11.607c-2.708,6.224-6.289,12.152-10.361,17.596v8.682
							c4.754-6.367,8.739-13.352,11.67-20.732c2.05-5.16,2.863-10.315,3.105-15.616c0.034,0.157,0.044-0.069,0.031-0.692
							c0.081-2.236,0.075-4.498,0.005-6.805c-0.059-1.938-0.409-3.931-1.036-5.832c0.564-0.985,0.996-1.912,1.251-2.684
							C237.248,290.661,236.983,287.954,236.974,284.711z M216.088,272.026c-1.533-0.452-3.297-1.353-4.736-2.567
							c3.029-1.55,7.909-1.223,10.439-0.727c1.888,0.369,3.625,1.127,5.207,2.147C223.709,272.709,219.803,273.123,216.088,272.026z
							 M221.377,295.381c0.153-0.658,0.37-1.309,0.758-1.421c1.625-0.468,3.433,0.169,5.167,1.323
							C225.313,296.285,223.014,296.748,221.377,295.381z"/>
						<g>
							<path style="fill:#0FB8CB;" d="M223.287,234.907v8.706c5.127,2.557,8.775,6.917,10.965,12.221
								c0.486,1.178,0.797,2.415,1.073,3.656c0.208-0.985,0.413-2.171,0.478-2.918C235.339,247.544,231.818,239.126,223.287,234.907
								z"/>
							<g>
								<path style="fill:#0FB8CB;" d="M221.867,295.728c0.395-0.271,0.82-0.504,1.298-0.641c1.234-0.355,2.499-0.15,3.723,0.39
									c0.93-0.425,1.811-0.975,2.543-1.538c1.018-0.782,2.023-1.621,2.943-2.539c-1.725-2.326-4.063-4.143-7.029-4.963
									c-4.09-1.134-5.56,2.973-5.591,6.177c0,0.033-0.002,0.072-0.003,0.106c0.165,0.533,0.44,1.135,0.691,1.551
									C220.844,294.943,221.33,295.414,221.867,295.728z"/>
							</g>
							<path style="fill:#0FB8CB;" d="M235.993,309.117c-0.008,0.232-0.02,0.462-0.031,0.692
								C235.996,309.967,236.006,309.74,235.993,309.117z"/>
							<path style="fill:#0FB8CB;" d="M234.506,303.51c0.538,1.102,0.852,2.297,1.088,3.498c0.102-0.609,0.193-1.221,0.246-1.837
								c0.085,1.884,0.136,3.196,0.152,3.946c0.081-2.236,0.075-4.498,0.005-6.805c-0.059-1.938-0.409-3.931-1.036-5.832
								c-0.686,1.198-1.577,2.479-2.597,3.682C233.29,301.355,234.039,302.551,234.506,303.51z"/>
							<path style="fill:#25DFE8;" d="M236.012,302.799c-0.052,0.616-0.315,3.6-0.417,4.209c-0.07,0.423-0.145,0.846-0.221,1.266
								c-0.727,4.013-2.205,7.883-3.826,11.607c-2.708,6.224-6.289,12.152-10.361,17.596v8.682
								c4.754-6.367,8.739-13.352,11.67-20.732c2.05-5.16,2.991-9.92,3.232-15.222c0.011-0.23,0.023-0.46,0.031-0.691
								C236.306,307.694,236.098,304.684,236.012,302.799z"/>
							<path style="fill:#0FB8CB;" d="M235.804,256.56c0,0.003-0.001,0.009-0.001,0.012c0.001,0.013,0.003,0.024,0.003,0.036
								C235.805,256.59,235.805,256.577,235.804,256.56z"/>
							<path style="fill:#0FB8CB;" d="M235.565,273.231c-0.334-0.974-0.744-1.923-1.217-2.838c-0.583,1.828-1.381,3.539-2.443,5.051
								c1.55,1.992,2.784,4.233,3.66,6.478c0.312,0.797,0.538,1.621,0.728,2.453l0.6-2.543
								C236.822,278.899,236.552,276.112,235.565,273.231z"/>
							<path style="fill:#25DFE8;" d="M235.805,256.607c0.114,3.775-0.084,5.473-0.38,3.295c-0.03-0.139-0.068-0.275-0.1-0.413
								c-0.081,0.39-0.164,0.753-0.236,1.037c-0.587,2.274-1.77,4.29-3.236,6.084c-0.58,0.708-1.198,1.386-1.85,2.024
								c-0.915,0.898-1.927,1.647-3.003,2.244c-3.29,1.83-7.196,2.244-10.911,1.147c-1.533-0.452-3.297-1.353-4.736-2.567
								c-1.551-1.311-2.719-2.988-2.799-4.885c-0.391,1.906-0.557,4.307-0.363,6.404c0.081,0.879,0.169,1.695,0.189,2.4
								c0.185,6.646,10.333,8.71,15.269,7.561c3.786-0.88,6.42-2.886,8.256-5.496c1.062-1.512,1.86-3.223,2.443-5.051
								c1.197-3.757,1.521-7.974,1.51-11.817C235.857,257.918,235.838,257.262,235.805,256.607z"/>
							<path style="fill:#0FB8CB;" d="M208.554,264.574c-0.001-0.023-0.006-0.045-0.007-0.068c-0.663,2.893-0.247,4.629,0.021,6.473
								C208.374,268.881,208.163,266.48,208.554,264.574z"/>
							<path style="fill:#0FB8CB;" d="M235.805,256.607c0-0.012-0.002-0.023-0.003-0.036c-0.064,0.747-0.27,1.933-0.478,2.918
								c0.031,0.138,0.069,0.274,0.1,0.413C235.721,262.08,235.919,260.383,235.805,256.607z"/>
							<path style="fill:#0FB8CB;" d="M211.352,269.459c3.029-1.55,7.909-1.223,10.439-0.727c1.888,0.369,3.625,1.127,5.207,2.147
								c1.077-0.598,2.088-1.346,3.003-2.244c0.651-0.639,1.27-1.316,1.85-2.024c-3.401-4.129-8.32-6.921-13.805-6.938
								c-3.071-0.009-7.424,0.304-9.018,3.415c-0.224,0.438-0.366,0.949-0.476,1.486
								C208.633,266.471,209.801,268.148,211.352,269.459z"/>
						</g>
					</g>
				</g>
				<g>
					<path style="fill:#EFBB2B;" d="M336.715,169.779c0.624-0.851,1.264-1.754,1.887-2.69c0.087-0.119,0.123-0.171,0.123-0.171
						c-0.008,0.006-0.019,0.019-0.026,0.025c1.514-2.283,2.917-4.765,3.696-7.24c0.31-0.982,0.542-1.989,0.705-3.006
						c3.193-2.313,5.956-5.515,8.229-8.615c0.39-0.53,0.765-1.07,1.126-1.616c0.011-0.014,0.019-0.024,0.027-0.04
						c-0.002,0.003-0.006,0.007-0.008,0.009c4.985-7.54,7.145-16.403,2.783-24.862l-5.165,7.004
						c2.608,5.1,2.956,10.775,1.571,16.343c-0.308,1.236-0.792,2.417-1.306,3.58c-0.298,0.265-0.579,0.509-0.806,0.694
						c-1.822,1.482-3.971,2.403-6.216,2.976c-0.286-5.341-2.589-10.509-6.993-13.777c-2.467-1.831-6.154-4.162-9.284-2.604
						c-0.44,0.219-0.857,0.546-1.266,0.913c0.013-0.019,0.021-0.04,0.036-0.059c-2.251,1.935-2.946,3.58-3.825,5.221
						c-0.457,0.756-0.887,1.465-1.29,2.045c-3.796,5.459,2.861,12.919,7.515,14.923c3.569,1.538,6.88,1.488,9.907,0.477
						c0.066,2.524-0.271,5.06-0.899,7.386c-0.226,0.835-0.528,1.643-0.874,2.434c-0.507,0.454-0.969,0.848-1.234,1.038
						c-1.815,1.284-3.919,1.937-6.085,2.263c-0.008-2.895-0.811-5.745-2.711-8.166c-2.618-3.339-6.239-0.907-8.166,1.653
						c-2.028,2.694-7.455,7.644-4.938,11.491c1.949,2.98,6.472,3.044,10.586,2.073c0.035,1.564-0.061,2.974-0.241,3.96
						c-0.222,1.205-0.679,2.354-1.201,3.462c-0.308,0.298-0.618,0.594-0.929,0.888c-2.966,2.798-6.453,5.036-9.969,7.071
						c-5.873,3.401-12.273,6.048-18.782,8.011l-5.153,6.988c7.605-2.303,14.959-5.558,21.698-9.759
						c4.713-2.938,8.427-6.602,11.768-10.726c-0.066,0.147,0.077-0.03,0.436-0.538c1.393-1.751,2.729-3.576,4.043-5.474
						c1.103-1.595,2.004-3.407,2.628-5.309c1.039-0.458,1.937-0.948,2.6-1.417C333.404,174.73,334.798,172.395,336.715,169.779z
						 M327.435,147.174c-0.966-1.274-1.851-3.045-2.288-4.878c3.357,0.551,7.092,3.711,8.833,5.611
						c1.301,1.417,2.249,3.059,2.916,4.819C333.163,152.246,329.773,150.261,327.435,147.174z M317.83,169.11
						c0.514-0.44,1.073-0.834,1.453-0.694c1.585,0.588,2.662,2.174,3.373,4.131C320.46,172.173,318.336,171.181,317.83,169.11z"/>
					<g>
						<path style="fill:none;" d="M319.443,169.935c-0.466-0.173-0.946-0.239-1.425-0.254c0.671,1.559,2.369,2.394,4.19,2.778
							C321.544,171.297,320.646,170.381,319.443,169.935z"/>
						<path style="fill:none;" d="M325.146,142.296c0.438,1.833,1.322,3.604,2.288,4.878c2.339,3.087,5.728,5.072,9.461,5.552
							c-0.667-1.76-1.615-3.401-2.916-4.819C332.238,146.007,328.504,142.847,325.146,142.296z"/>
						<path style="fill:none;" d="M315.878,170.174c-0.122,0.065-0.251,0.106-0.368,0.183
							C313.379,171.752,313.864,173.025,315.878,170.174z"/>
						<path style="fill:#F7D665;" d="M355.259,121.572l-5.167,7.006c2.608,5.1,2.956,10.775,1.571,16.343
							c-0.308,1.236-0.792,2.417-1.306,3.58c0.751-0.67,1.62-1.502,2.116-2.065C357.459,138.895,359.621,130.031,355.259,121.572z"
							/>
						<g>
							<path style="fill:none;" d="M316.636,169.862l0.126-0.482c0.675-0.355,0.517,0.275,1.257,0.3
								c-0.247-0.572-0.357-1.24-0.283-2.019c0.045-0.484,0.181-1.131,0.364-1.659c-0.027,0.037-0.06,0.077-0.089,0.113
								c-0.833,1.732-1.534,3.21-2.133,4.058C315.756,170.239,316.752,169.784,316.636,169.862z"/>
							<path style="fill:none;" d="M319.443,169.935c-0.466-0.173-0.946-0.239-1.425-0.254c0.671,1.559,2.369,2.394,4.19,2.778
								C321.544,171.297,320.646,170.381,319.443,169.935z"/>
							<path style="fill:#F7D665;" d="M318.019,169.68c0.479,0.016,0.959,0.081,1.425,0.254c1.203,0.447,2.1,1.362,2.766,2.524
								c1,0.21,2.035,0.29,2.959,0.271c1.283-0.025,2.591-0.104,3.875-0.297c-0.008-2.895-0.811-5.745-2.711-8.166
								c-2.618-3.339-6.239-0.907-8.166,1.653c-0.02,0.027-0.045,0.057-0.066,0.083c-0.184,0.528-0.319,1.175-0.364,1.659
								C317.661,168.44,317.771,169.108,318.019,169.68z"/>
						</g>
						<path style="fill:#8A3CE5;" d="M321.439,188.839c-0.144,0.182-0.289,0.36-0.436,0.538
							C320.938,189.525,321.081,189.348,321.439,188.839z"/>
						<path style="fill:#F7D665;" d="M323.572,183.444c-0.222,1.205-0.679,2.354-1.201,3.462c0.443-0.431,0.88-0.868,1.288-1.333
							c-1.049,1.567-1.787,2.654-2.22,3.267c1.393-1.751,2.729-3.576,4.043-5.474c1.103-1.595,2.004-3.407,2.628-5.309
							c-1.264,0.558-2.74,1.059-4.275,1.422C323.872,180.988,323.765,182.395,323.572,183.444z"/>
						<path style="fill:#EFBB2B;" d="M325.205,183.766c-0.407,0.464-2.391,2.708-2.834,3.139c-0.308,0.298-0.618,0.594-0.929,0.888
							c-2.966,2.798-6.453,5.036-9.969,7.071c-5.873,3.401-12.273,6.048-18.782,8.011l-5.153,6.988
							c7.605-2.303,14.959-5.558,21.698-9.759c4.713-2.938,8.295-6.209,11.637-10.333c0.146-0.179,0.291-0.357,0.436-0.538
							C322.536,187.879,324.156,185.333,325.205,183.766z"/>
						<path style="fill:#8A3CE5;" d="M352.481,146.427c-0.002,0.003-0.006,0.007-0.008,0.009c-0.007,0.01-0.012,0.021-0.02,0.031
							C352.465,146.453,352.473,146.442,352.481,146.427z"/>
						<path style="fill:#F7D665;" d="M342.395,159.704c0.31-0.982,0.542-1.989,0.705-3.006c-1.554,1.126-3.212,2.029-4.964,2.615
							c0.066,2.524-0.271,5.06-0.899,7.386c-0.222,0.827-0.528,1.624-0.87,2.407l1.993-1.691
							C340.042,165.011,341.479,162.608,342.395,159.704z"/>
						<path style="fill:#EFBB2B;" d="M352.454,146.467c-2.149,3.106-3.315,4.355-2.262,2.426c0.058-0.129,0.108-0.262,0.165-0.392
							c-0.298,0.265-0.579,0.509-0.806,0.694c-1.822,1.482-3.971,2.403-6.216,2.976c-0.887,0.225-1.786,0.403-2.69,0.531
							c-1.271,0.18-2.527,0.181-3.75,0.024c-3.732-0.48-7.122-2.465-9.461-5.552c-0.966-1.274-1.851-3.045-2.288-4.878
							c-0.471-1.975-0.415-4.018,0.647-5.592c-1.446,1.303-3.004,3.136-4.093,4.939c-0.456,0.756-0.87,1.465-1.273,2.044
							c-3.795,5.458,3.148,13.143,7.802,15.148c3.569,1.538,6.88,1.488,9.907,0.477c1.752-0.586,3.41-1.489,4.964-2.615
							c3.193-2.313,5.956-5.515,8.229-8.615C351.718,147.552,352.093,147.013,352.454,146.467z"/>
						<path style="fill:#F7D665;" d="M325.146,142.296c3.357,0.551,7.092,3.711,8.833,5.611c1.301,1.417,2.249,3.059,2.916,4.819
							c1.223,0.157,2.479,0.156,3.75-0.024c0.904-0.128,1.804-0.306,2.69-0.531c-0.286-5.341-2.589-10.509-6.993-13.777
							c-2.467-1.831-6.154-4.162-9.284-2.604c-0.44,0.219-0.857,0.546-1.266,0.913C324.731,138.278,324.676,140.322,325.146,142.296
							z"/>
					</g>
				</g>
				<g>
					<g>
						<path style="fill:#F7D665;" d="M374.112,35.501C374.356,33.963,373.981,33.19,374.112,35.501L374.112,35.501z"/>
						<path style="fill:#F7D665;" d="M373.727,26.77C373.97,25.232,373.594,24.459,373.727,26.77L373.727,26.77z"/>
						<path style="fill:#F7D665;" d="M365.119,10.981c0.841,1.691,1.81,3.307,2.813,4.906c1.696,2.712,3.532,5.511,4.804,8.507
							c-0.759-1.996-1.708-3.903-2.805-5.743c-1.789-3.004-4.132-6.051-5.522-9.365c-0.001,0.001-0.003,0.003-0.003,0.005
							C364.62,9.863,364.847,10.431,365.119,10.981z"/>
						<path style="fill:#F7D665;" d="M375.888,0.098c1.066-0.538-0.974-7.127,0-7.619c-4.827,2.433-10.927,5.649-12.164,11.436
							c-0.739,3.452-0.589,8.268,0.254,11.716c1.046,4.269,4.129,8.038,6.34,11.75c1.323,2.222,2.452,4.535,3.263,6.994
							c0.022,0.07,0.033,0.144,0.056,0.216l0,0c0.145,0.476,0.271,0.958,0.373,1.444c-0.039,0.163-0.083,0.33-0.137,0.5
							c-2.366,7.525-11.905,10.295-17.691,14.473c-1.553,1.122-2.94,2.503-3.857,4.134l0.852,6.308
							c0.059-0.077,0.11-0.16,0.17-0.235c2.052-2.564,5.206-4.222,8.004-5.821c6.141-3.511,12.882-7.254,13.166-15.16
							c0.03-0.841,0.059-1.692,0.079-2.547c0.002-0.058,0.003-0.114,0.004-0.172c0.02-0.859,0.025-1.721,0.018-2.585
							c-0.002-0.05-0.002-0.101-0.003-0.152c-0.012-0.872-0.048-1.742-0.108-2.609c-0.003-0.033-0.006-0.065-0.009-0.099
							c-0.095-1.288-0.251-2.565-0.511-3.816c-0.939-4.514-3.648-8.523-6.054-12.367c-1.003-1.6-1.972-3.215-2.813-4.906
							c-0.272-0.549-0.499-1.117-0.713-1.691C366.384,4.88,371.973,2.071,375.888,0.098z"/>
						<g>
							<g>
								<path style="fill:#EFBB2B;" d="M373.872,36.536c-2.366,7.525-11.905,10.295-17.691,14.473
									c-1.553,1.122-2.94,2.503-3.857,4.134l0.852,6.308c0.059-0.077,0.11-0.16,0.17-0.235c2.052-2.564,5.206-4.222,8.004-5.821
									c6.141-3.511,12.882-7.254,13.166-15.16c0.03-0.841,0.059-1.692,0.079-2.547c0.002-0.058,0.003-0.114,0.004-0.172
									c0.02-0.859,0.025-1.721,0.018-2.585c-0.002-0.05-0.002-0.101-0.003-0.152c0-0.091-0.009-0.182-0.012-0.272
									c-0.178,0.648-0.409,1.261-0.681,1.849C373.904,36.416,373.892,36.474,373.872,36.536z"/>
							</g>
							<path style="fill:#F7D665;" d="M367.372,5.411c2.533-2.296,5.896-3.993,8.516-5.313c1.066-0.538-0.974-7.127,0-7.619
								c-3.866,1.949-8.541,4.404-10.89,8.275c0.199,0.526,0.405,1.05,0.656,1.554C366.18,3.37,366.768,4.396,367.372,5.411z"/>
							<path style="fill:#F7D665;" d="M364.513,6.959c0.112,0.457,0.259,0.906,0.413,1.353c0.637-1.063,1.48-2.025,2.446-2.901
								c-0.605-1.016-1.192-2.041-1.718-3.102c-0.251-0.504-0.457-1.028-0.656-1.554c-0.458,0.756-0.822,1.569-1.079,2.44
								C364.039,4.532,364.234,5.823,364.513,6.959z"/>
						</g>
						<g>
							<path style="fill:#EFBB2B;" d="M375.888-7.521c-4.167,2.101-9.276,4.789-11.392,9.207c-0.337,0.699-0.604,1.438-0.772,2.229
								c-0.141,0.655-0.238,1.369-0.316,2.104c0.06,0.298,0.117,0.6,0.186,0.881c0.198,0.813,0.489,1.604,0.816,2.385
								c0.555-1.234,1.397-2.339,2.401-3.339c2.582-2.571,6.26-4.428,9.077-5.849C376.954-0.44,374.914-7.03,375.888-7.521z"/>
						</g>
					</g>
				</g>
				<g>
					<path style="fill:#F7D665;" d="M455.76,187.942c-7.886-3.431-24.144-9.626-26.926-19.827c0.009-0.013,0.018-0.027,0.027-0.041
						c1.307-1.767,2.9-3.319,4.519-4.794c3.756-3.426,7.955-6.358,12.037-9.373c6.981-5.157,14.276-8.429,16.624-17.206
						c1.073-2.445,2.982-10.499,2.774-10.981c0.411-2.564,0.439-5.132-0.509-7.606c-2.143-5.59-7.776-9.594-12.556-12.757
						c0.966,0.64-3.613,9.804-2.517,10.53c4.809,3.184,9.804,6.924,12.347,12.266c0.338,0.711,0.571,1.457,0.748,2.213
						c-0.015,0.02-0.03,0.038-0.041,0.06c-5.445,10.283-15.093,13.226-22.656,19.188c-3.494,2.755-6.98,5.767-9.37,9.566
						c-1.56,2.48-2.542,5.607-3.225,8.754c-0.331,1.282-0.666,2.818-0.703,3.828c-0.161,1.028-0.305,2.039-0.427,2.992
						c-1.593,12.298,19.082,20.128,27.336,23.718C452.739,198.253,456.413,188.227,455.76,187.942z"/>
					<g>
						<path style="fill:none;" d="M454.872,138.285c-2.197,1.567-4.547,3.074-6.865,4.787c-4.082,3.015-8.281,5.947-12.037,9.372
							c-1.619,1.477-3.213,3.028-4.518,4.795c-0.009,0.013-0.019,0.027-0.027,0.04c0.015,0.055,0.042,0.106,0.057,0.161
							c2.283-2.999,5.209-5.508,8.151-7.827C444.428,145.832,450.005,142.368,454.872,138.285z"/>
						<path style="fill:#EFBB2B;" d="M455.76,187.942c-7.472-3.25-22.443-8.991-26.361-18.264c-0.808-1.798-1.166-3.716-0.901-5.76
							c0.065-0.512,0.151-1.069,0.23-1.608c-0.714,1.776-1.267,3.686-1.69,5.624c-0.331,1.282-0.666,2.818-0.703,3.828
							c-0.161,1.028-0.305,2.039-0.427,2.992c-1.593,12.298,19.082,20.128,27.336,23.718
							C452.739,198.253,456.413,188.227,455.76,187.942z"/>
						<path style="fill:#EFBB2B;" d="M464.77,119.728c-0.119-0.541-0.259-1.08-0.463-1.613c-2.143-5.59-7.776-9.594-12.556-12.757
							c0.966,0.64-3.613,9.804-2.517,10.53c3.902,2.581,7.903,5.549,10.639,9.421c0.636,0.901,1.227,1.836,1.708,2.845
							c0.338,0.711,0.571,1.457,0.748,2.213c-0.015,0.02-0.026,0.04-0.041,0.06c0,0,1.404-1.596,2.343-4.561
							c0.076-0.172,0.157-0.379,0.24-0.603C465.136,123.404,465.173,121.548,464.77,119.728z"/>
					</g>
				</g>
				<g>
					<g>
						<path style="fill:#F7D665;" d="M437.39,251.047c7.277,9.236,17.188,16.32,29.395,12.826c0.508-0.145-0.434-5.221,0-5.344
							c-12.207,3.492-22.117-3.592-29.395-12.828c0.275,0.35-0.027,2.238-0.027,2.672
							C437.362,248.848,437.077,250.65,437.39,251.047L437.39,251.047z"/>
					</g>
				</g>
				<g>
					<g>
						<path style="fill:#FB639E;" d="M36.864,44.041c17.399,7.665,36.926,10.259,51.704-3.994c0.615-0.591-4.581-7.125-4.056-7.631
							C69.734,46.668,50.208,44.074,32.808,36.41c0.66,0.291,1.659,3.216,1.989,3.836C35.157,40.922,36.117,43.712,36.864,44.041
							L36.864,44.041z"/>
					</g>
				</g>
				<g>
					<g>
						<path style="fill:#FB639E;" d="M437.742,8.211c-15.559,10.928-27.878,26.298-23.322,46.316
							c0.189,0.833,8.467-0.235,8.628,0.477c-4.554-20.02,7.765-35.39,23.323-46.318c-0.59,0.415-3.61-0.242-4.313-0.281
							C441.294,8.363,438.41,7.741,437.742,8.211L437.742,8.211z"/>
					</g>
				</g>
				<g>
					<path style="fill:#F32874;" d="M170.97,72.997c3.978-0.159,8.044-1.212,10.337-4.406c4.304,1.741,8.517,2.19,13.326,2.118
						c0,0,1.913-0.092,2.698-0.079c4.569-0.223,8.785-0.91,12.962-3.264c5.397-3.039,9.335-8.238,12.485-13.439
						c-0.639,1.055-6.446-0.965-7.131,0.165c-4.175,6.9-9.605,13.055-17.466,15.644c-0.882,0.291-1.795,0.472-2.705,0.654
						c-0.042,0.008-0.077,0.017-0.117,0.025c-1.307-0.123-2.621-0.339-3.871-0.736c-2.481-0.787-4.853-2.002-7.139-3.227
						c-0.517-0.277-1.07-0.575-1.641-0.896c0.865-3.405-0.176-7.269-1.766-10.261c-1.529-2.879-3.23-4.033-5.865-4.323
						c-1.26-0.183-4.558-0.317-6.043-0.062c-0.59,0.081-1.148,0.224-1.621,0.496c-1.87,1.07-2.1,3.571-1.482,5.386
						c1.299,3.825,5.524,6.709,9.437,8.865c-0.937,3.235-3.328,5.938-7.31,6.985c-0.158,0.042-0.321,0.061-0.483,0.095
						c-1.297-0.222-2.545-0.683-3.75-1.205c-2.904-1.26-5.38-3.397-7.534-5.676c-4.624-4.895-7.632-11.329-9.287-17.799
						c-1.069-4.184-1.413-9.061-0.48-13.509c1.384,0.284,2.793,0.439,4.204,0.475c1.206,0.026,1.718,0.069,2.582,0.015
						c3.692,0.016,7.54,0.325,9.176-3.663c1.149-2.801-0.083-6.402-2.503-8.098c-1.33-0.936-2.96-0.805-4.5-0.779
						c-2.402,0.041-5.109-0.23-7.421,0.58c-2.345,0.822-4.238,2.539-5.685,4.632c-1.395-1.704-2.527-3.638-3.328-5.745
						c-3.656-9.594-0.157-21.514,6.355-29.024c-0.285,0.328-3.133,0.036-3.564,0.047c-0.48,0.011-3.223-0.275-3.563,0.117
						c-8.157,9.402-11.278,25.488-2.485,35.501c1.255,1.428,2.73,2.577,4.325,3.515c-0.483,1.319-0.831,2.654-1.037,3.917
						c-1.057,6.445,0.651,13.264,3.169,19.168c2.537,5.954,6.559,11.534,11.99,15.142C159.343,73.74,165.127,73.23,170.97,72.997z
						 M172.708,55.159c-0.06-0.432-0.023-0.881,0.081-1.321c1.582,1.996,2.555,4.342,2.887,6.711
						C174.133,58.978,172.987,57.185,172.708,55.159z M153.419,23.865c0.628,0.55,1.129,1.252,1.517,1.976
						c1.154,2.147,1.107,4.93-0.25,6.959c-0.455,0.68-1.1,1.156-1.813,1.515c-1.107-0.304-2.188-0.728-3.244-1.164
						c-0.839-0.346-1.623-0.768-2.384-1.223C148.379,28.667,150.352,25.809,153.419,23.865z"/>
					<path style="fill:#FF5A9D;" d="M167.413,51.404c-1.87,1.07-2.1,3.571-1.482,5.386c1.299,3.825,5.524,6.709,9.437,8.865
						c2.521,1.481,5.938,2.936,5.938,2.936c4.102,1.66,8.127,2.139,12.659,2.119c0.595-0.1,1.106-0.212,1.535-0.327
						c-0.008,0.003-0.016,0.004-0.025,0.006c-0.042,0.008-0.077,0.017-0.117,0.025c-1.307-0.123-2.621-0.339-3.871-0.736
						c-2.481-0.787-4.853-2.002-7.139-3.227c-0.517-0.277-1.07-0.575-1.641-0.896c-3.44-1.837-7.031-5.006-7.031-5.006
						c-1.543-1.571-2.689-3.364-2.968-5.39c-0.06-0.432-0.023-0.881,0.081-1.321c0.228-1.088,1.375-2.184,2.232-2.873
						c-1.296-0.18-4.52-0.308-5.988-0.056C168.444,50.99,167.886,51.133,167.413,51.404z"/>
					<g>
						<path style="fill:#FF5A9D;" d="M168.158,72.613c0,0-0.022,0.003-0.038,0.006l0,0L168.158,72.613z"/>
						<path style="fill:#FF5A9D;" d="M142.247,55.204c2.537,5.954,6.559,11.534,11.99,15.142c2.961,1.968,6.151,2.621,9.446,2.778
							c1.648-0.11,3.038-0.293,3.812-0.407c-1.27-0.226-2.489-0.676-3.67-1.188c-2.904-1.26-5.38-3.397-7.534-5.676
							c-4.624-4.895-7.632-11.329-9.287-17.799c-1.069-4.184-1.413-9.061-0.48-13.509c0.159-0.842,0.166-0.997,0.721-2.618
							c1.134-3.261,3.106-6.119,6.174-8.063c1.03-0.794,2.539-1.185,3.817-1.38c-0.585-0.023-1.176,0.001-1.755,0.011
							c-2.402,0.041-5.109-0.23-7.421,0.58c-2.345,0.822-4.238,2.539-5.685,4.632c-1.247,1.931-2.26,4.412-2.26,4.412
							c-0.483,1.319-0.831,2.654-1.037,3.917C138.021,42.481,139.73,49.3,142.247,55.204z"/>
					</g>
				</g>
				<g>
					<path style="fill:#00D08F;" d="M117.568,217.802c4.101-0.164,8.293-1.25,10.657-4.543c4.438,1.795,8.781,2.258,13.738,2.184
						c0,0,1.973-0.095,2.782-0.082c4.71-0.23,9.056-0.938,13.363-3.365c5.564-3.134,9.624-8.493,12.872-13.855
						c-0.659,1.088-6.646-0.996-7.352,0.17c-4.304,7.114-9.902,13.459-18.007,16.128c-0.91,0.3-1.851,0.487-2.789,0.674
						c-0.043,0.009-0.079,0.018-0.12,0.026c-1.348-0.126-2.702-0.349-3.991-0.759c-2.558-0.811-5.003-2.063-7.359-3.326
						c-0.533-0.286-1.103-0.593-1.692-0.923c0.892-3.51-0.182-7.493-1.821-10.579c-1.577-2.968-3.33-4.158-6.046-4.457
						c-1.299-0.188-4.699-0.327-6.23-0.064c-0.608,0.083-1.183,0.23-1.671,0.511c-1.928,1.104-2.165,3.682-1.527,5.553
						c1.34,3.943,5.695,6.917,9.729,9.139c-0.966,3.335-3.431,6.123-7.537,7.202c-0.163,0.043-0.331,0.063-0.499,0.098
						c-1.337-0.229-2.624-0.704-3.866-1.243c-2.994-1.299-5.546-3.502-7.768-5.852c-4.767-5.047-7.869-11.68-9.575-18.35
						c-1.102-4.314-1.457-9.342-0.495-13.927c1.427,0.292,2.88,0.452,4.334,0.489c1.243,0.028,1.771,0.072,2.662,0.016
						c3.806,0.016,7.773,0.335,9.459-3.776c1.186-2.888-0.086-6.601-2.581-8.349c-1.372-0.964-3.052-0.83-4.64-0.803
						c-2.477,0.042-5.267-0.238-7.65,0.598c-2.418,0.847-4.369,2.618-5.861,4.775c-1.438-1.756-2.605-3.751-3.431-5.922
						c-3.77-9.891-0.162-22.18,6.552-29.922c-0.293,0.338-3.229,0.037-3.675,0.048c-0.495,0.011-3.323-0.283-3.672,0.121
						c-8.41,9.693-11.627,26.277-2.562,36.601c1.294,1.472,2.815,2.656,4.459,3.623c-0.498,1.36-0.856,2.737-1.069,4.038
						c-1.09,6.645,0.672,13.674,3.266,19.761c2.616,6.138,6.763,11.891,12.362,15.611
						C105.581,218.568,111.544,218.043,117.568,217.802z M119.36,199.412c-0.062-0.445-0.023-0.908,0.083-1.362
						c1.631,2.058,2.634,4.477,2.977,6.919C120.83,203.35,119.648,201.501,119.36,199.412z M99.474,167.15
						c0.647,0.566,1.164,1.29,1.563,2.037c1.19,2.213,1.141,5.083-0.258,7.173c-0.469,0.701-1.134,1.192-1.869,1.562
						c-1.141-0.313-2.255-0.75-3.344-1.2c-0.865-0.356-1.673-0.792-2.458-1.261C94.278,172.1,96.312,169.153,99.474,167.15z"/>
					<path style="fill:#00B77A;" d="M113.901,195.541c-1.928,1.104-2.165,3.682-1.527,5.553c1.34,3.943,5.695,6.917,9.729,9.139
						c2.598,1.528,6.121,3.027,6.121,3.027c4.229,1.712,8.379,2.206,13.051,2.185c0.614-0.102,1.141-0.218,1.582-0.337
						c-0.008,0.003-0.017,0.004-0.026,0.006c-0.043,0.009-0.079,0.018-0.12,0.026c-1.348-0.126-2.702-0.349-3.991-0.759
						c-2.558-0.811-5.003-2.063-7.359-3.326c-0.533-0.286-1.103-0.593-1.692-0.923c-3.547-1.894-7.249-5.162-7.249-5.162
						c-1.591-1.619-2.772-3.468-3.06-5.557c-0.062-0.445-0.023-0.908,0.083-1.362c0.234-1.122,1.417-2.251,2.301-2.961
						c-1.336-0.186-4.66-0.318-6.173-0.058C114.964,195.114,114.389,195.261,113.901,195.541z"/>
					<g>
						<path style="fill:#FF5A9D;" d="M114.669,217.407c0,0-0.022,0.003-0.039,0.006l0,0L114.669,217.407z"/>
						<path style="fill:#00B77A;" d="M87.956,199.458c2.616,6.138,6.763,11.891,12.362,15.611c3.053,2.028,6.341,2.702,9.739,2.864
							c1.699-0.114,3.132-0.302,3.929-0.419c-1.309-0.233-2.566-0.697-3.783-1.224c-2.994-1.299-5.546-3.502-7.768-5.852
							c-4.767-5.047-7.869-11.68-9.575-18.35c-1.102-4.314-1.457-9.342-0.495-13.927c0.164-0.868,0.171-1.028,0.744-2.7
							c1.169-3.362,3.203-6.308,6.365-8.311c1.062-0.819,2.617-1.223,3.936-1.423c-0.604-0.024-1.212,0.001-1.81,0.011
							c-2.477,0.042-5.267-0.238-7.65,0.598c-2.418,0.847-4.369,2.618-5.861,4.775c-1.286,1.991-2.33,4.548-2.33,4.548
							c-0.498,1.36-0.856,2.737-1.069,4.038C83.6,186.342,85.362,193.372,87.956,199.458z"/>
					</g>
				</g>
				<path style="fill:#00D08F;" d="M170.148,8.562c0,0,15.665,4.519,21.39,23.197c-4.217,0.302-8.134,3.013-8.134,3.013
					s-7.531-20.185-20.486-17.474C163.52,13.985,170.148,8.562,170.148,8.562z"/>
				<path style="fill:#FB639E;" d="M268.666,43.921c0,0-3.828,10.453-16.824,13.458c-0.004-2.887-1.664-5.685-1.664-5.685
					s14.109-4.163,12.884-13.117C265.291,39.146,268.666,43.921,268.666,43.921z"/>
				<path style="fill:#00D08F;" d="M62.34,78.537c0,0-3.828,10.453-16.825,13.458c-0.004-2.887-1.663-5.685-1.663-5.685
					s14.109-4.163,12.884-13.117C58.965,73.762,62.34,78.537,62.34,78.537z"/>
				<path style="fill:#FB639E;" d="M21.047,28.437c0,0-22.253-6.137-30.671-32.486C-3.658-4.547,1.842-8.452,1.842-8.452
					S12.843,20,31.138,15.946C30.341,20.648,21.047,28.437,21.047,28.437z"/>
				<path style="fill:#F7D665;" d="M241.261,103.558c0,0-5.065-7.672-8.427-8.572c0.715,5.772-2.277,10.322-6.12,13.708l5.806,7.547
					C238.986,110.107,241.261,103.558,241.261,103.558z"/>
				<path style="fill:#F7D665;" d="M76.255,115.539c0,0,4.789-7.847,4.175-11.272c-4.92,3.102-10.311,2.329-15.009,0.291
					l-4.362,8.464C69.359,116.265,76.255,115.539,76.255,115.539z"/>
				<path style="fill:#10B9BC;" d="M153.28,122.928c-5.759,5.073-13.433,7.527-13.433,7.527s2.486,4.498,2.471,9.151
					c7.409-1.861,12.855-5.42,16.768-9.131L153.28,122.928z"/>
				<polygon style="fill:#00D08F;" points="116.346,76.794 131.907,57.128 133.939,83.251 				"/>
				<polygon style="fill:#10B9BC;" points="4.466,87.896 28.881,55.427 22.059,94.353 				"/>
				<polygon style="fill:#FB639E;" points="191.538,148.214 199.671,138.874 203.287,148.214 				"/>
				<polygon style="fill:#FBD45D;" points="229.799,37.847 231.607,25.194 238.536,31.521 				"/>
				<polygon style="fill:#0FB8CB;" points="88.081,16.319 89.889,3.666 96.818,9.993 				"/>
				<polygon style="fill:#0FB8CB;" points="40.117,139.355 28.881,133.262 40.117,120.709 				"/>
				<polygon style="fill:#0FB8CB;" points="209.682,88.636 198.447,82.543 217.773,76.551 				"/>
				<polygon style="fill:#0FB8CB;" points="495.451,159.946 484.215,153.853 503.541,147.862 				"/>
				<polygon style="fill:#0FB8CB;" points="443.942,217.722 452.141,207.915 454.185,228.044 				"/>
				<path style="fill:#00D08F;" d="M362.016,98.127c0,0,4.519-15.665,23.197-21.39c0.302,4.218,3.013,8.134,3.013,8.134
					s-20.185,7.531-17.474,20.486C367.438,104.756,362.016,98.127,362.016,98.127z"/>
				<path style="fill:#10B9BC;" d="M480.774,17.072c0,0,4.519-15.665,23.197-21.39c0.302,4.218,3.013,8.134,3.013,8.134
					s-20.185,7.531-17.474,20.486C486.196,23.701,480.774,17.072,480.774,17.072z"/>
				<path style="fill:#FB639E;" d="M406.919-8.962c0,0,10.453,3.829,13.458,16.825c-2.888,0.004-5.686,1.663-5.686,1.663
					s-4.163-14.108-13.116-12.884C402.144-5.587,406.919-8.962,406.919-8.962z"/>
				<path style="fill:#FB639E;" d="M422.104,210.77c0,0-6.137,22.254-32.485,30.672c-0.498-5.967-4.402-11.467-4.402-11.467
					s28.452-11.001,24.396-29.296C414.316,201.477,422.104,210.77,422.104,210.77z"/>
				<path style="fill:#F7D665;" d="M457.83,15.503c0,0-7.672,5.065-8.572,8.427c5.773-0.715,10.322,2.277,13.708,6.12l7.547-5.806
					C464.38,17.778,457.83,15.503,457.83,15.503z"/>
				<path style="fill:#0FB8CB;" d="M301.379,3.885c0,0-4.501-8.016-7.789-9.156c0.299,5.809-3.013,10.132-7.089,13.232l5.248,7.945
					C298.639,10.254,301.379,3.885,301.379,3.885z"/>
				<path style="fill:#F7D665;" d="M489.906,185.484c0,0-7.848-4.789-11.272-4.175c3.102,4.92,2.329,10.311,0.291,15.009
					l8.465,4.361C490.632,192.381,489.906,185.484,489.906,185.484z"/>
				<path style="fill:#10B9BC;" d="M477.2,103.483c5.073,5.76,7.526,13.434,7.526,13.434s4.498-2.486,9.152-2.47
					c-1.861-7.409-5.42-12.856-9.131-16.769L477.2,103.483z"/>
				<path style="fill:#FB639E;" d="M264.357,116.895c5.073,5.76,7.526,13.434,7.526,13.434s4.498-2.486,9.152-2.47
					c-1.861-7.409-5.42-12.856-9.131-16.769L264.357,116.895z"/>
				<path style="fill:#FB639E;" d="M192.12,175.707c5.073,5.76,7.526,13.434,7.526,13.434s4.498-2.486,9.152-2.47
					c-1.861-7.409-5.42-12.856-9.131-16.769L192.12,175.707z"/>
				<polygon style="fill:#00D08F;" points="411.067,137.919 391.4,122.357 417.523,120.325 				"/>
				<polygon style="fill:#25DFE8;" points="354.574,213.733 370.858,194.66 371.915,220.841 				"/>
				<polygon style="fill:#F7D665;" points="122.951,37.898 103.284,22.336 129.407,20.304 				"/>
				<polygon style="fill:#FB639E;" points="492.003,65.227 482.664,57.093 492.004,53.478 				"/>
				<polygon style="fill:#FBD45D;" points="387.463,26.965 374.81,25.158 381.137,18.229 				"/>
				<polygon style="fill:#0FB8CB;" points="370.246,188.134 357.593,186.327 363.919,179.398 				"/>
				<polygon style="fill:#00D08F;" points="283.362,183.551 270.709,181.743 277.035,174.814 				"/>
				<polygon style="fill:#00D08F;" points="264.547,216.725 251.894,214.917 258.22,207.988 				"/>
				<polygon style="fill:#0FB8CB;" points="493.628,216.648 487.535,227.883 474.981,216.647 				"/>
				<polygon style="fill:#0FB8CB;" points="465.681,46.474 459.587,57.709 453.596,38.383 				"/>
				<polygon style="fill:#FB639E;" points="369.962,318.961 363.868,330.197 357.877,310.871 				"/>
				<polygon style="fill:#0FB8CB;" points="351.777,34.631 345.684,45.866 339.692,26.54 				"/>
				<polygon style="fill:#FB639E;" points="304.603,73.317 298.51,84.553 292.519,65.227 				"/>
				<path style="fill:#00D08F;" d="M306.853,270.219c0,0-4.33,12.286-19.496,15.987c-0.045-3.378-2.025-6.628-2.025-6.628
					s16.449-5.072,14.888-15.532C302.835,264.679,306.853,270.219,306.853,270.219z"/>
				<path style="fill:#FB639E;" d="M279.947,343.088c0,0-8.16-3.538-9.955-14.044c2.304,0.13,4.612-1.063,4.612-1.063
					s2.667,11.446,9.865,10.885C283.914,340.617,279.947,343.088,279.947,343.088z"/>
				<path style="fill:#FB639E;" d="M232.516,221.706c0,0-8.16-3.538-9.955-14.044c2.304,0.13,4.612-1.063,4.612-1.063
					s2.667,11.446,9.865,10.885C236.482,219.235,232.516,221.706,232.516,221.706z"/>
				<path style="fill:#FB639E;" d="M300.334,146.977c0,0,6.685-19.658,30.233-27.551c-0.811-2.081-1.563-4.696-1.63-7.369
					c-26.792,6.875-34.209,28.736-34.209,28.736s3.016,4.053,6.404,7.215C300.629,147.373,300.334,146.977,300.334,146.977z"/>
				<path style="fill:#F7D665;" d="M204.528,333.755c0,0,6.355-3.685,7.229-6.324c-4.638,0.303-8.128-2.295-10.651-5.518
					l-6.289,4.281C199.409,331.637,204.528,333.755,204.528,333.755z"/>
				<path style="fill:#F7D665;" d="M241.104,181.69c0,0,7.557,5.236,11.011,4.821c-2.81-5.091-1.727-10.428,0.58-15l-8.198-4.845
					C240.78,174.763,241.104,181.69,241.104,181.69z"/>
				<path style="fill:#10B9BC;" d="M219.802,231.274c-3.78-4.83-5.381-11.064-5.381-11.064s-3.704,1.774-7.415,1.546
					c1.142,5.997,3.728,10.506,6.507,13.8L219.802,231.274z"/>
				<path style="fill:#10B9BC;" d="M346.091,84.324c-3.78-4.83-5.381-11.064-5.381-11.064s-3.704,1.774-7.415,1.546
					c1.141,5.997,3.728,10.506,6.506,13.8L346.091,84.324z"/>
				<polygon style="fill:#00D08F;" points="277.458,223.96 296.189,240.636 269.992,241.149 				"/>
				<polygon style="fill:#FB639E;" points="159.219,319.793 166.292,326.715 158.674,329.165 				"/>
				<polygon style="fill:#FB639E;" points="53.641,-1.02 60.713,5.902 53.096,8.352 				"/>
				<polygon style="fill:#FBD45D;" points="304.114,307.887 314.123,309.915 308.756,315.148 				"/>
				<polygon style="fill:#0FB8CB;" points="322.779,228.01 335.307,230.549 328.589,237.099 				"/>
				<polygon style="fill:#0FB8CB;" points="219.424,144.231 226.158,133.368 238.039,145.313 				"/>
				<polygon style="fill:#0FB8CB;" points="253.588,283.777 258.97,275.098 262.853,290.792 				"/>
				<polygon style="fill:#0FB8CB;" points="414.463,312.35 419.844,303.67 423.727,319.364 				"/>
				<polygon style="fill:#0FB8CB;" points="75.852,70.879 81.234,62.2 85.117,77.894 				"/>
				<polygon style="fill:#0FB8CB;" points="396.942,152.294 402.324,143.614 406.207,159.308 				"/>
				<path style="fill:#00D08F;" d="M70.203,240.64c0,0,10.187-12.729,29.632-10.843c-1.34,4.01-0.342,8.667-0.342,8.667
					s-21.529-0.796-23.999,12.207C72.664,248.843,70.203,240.64,70.203,240.64z"/>
				<path style="fill:#FB639E;" d="M148.135,164.314c0,0,8.182,7.548,5.966,20.702c-2.668-1.105-5.888-0.648-5.888-0.648
					s1.573-14.625-7.164-16.933C142.429,165.597,148.135,164.314,148.135,164.314z"/>
				<path style="fill:#F7D665;" d="M304.382,383.908c0,0-8.56-11.454-2.675-27.544c3.108,2.021,7.282,2.2,7.282,2.2
					s-5.419,18.101,5.073,23.063C311.886,383.625,304.382,383.908,304.382,383.908z"/>
				<path style="fill:#F7D665;" d="M336.57,289.817c0,0-8.56-11.454-2.675-27.544c3.108,2.021,7.282,2.2,7.282,2.2
					s-5.419,18.102,5.073,23.063C344.074,289.534,336.57,289.817,336.57,289.817z"/>
				<path style="fill:#F7D665;" d="M202.056,17.438c0,0-8.56-11.454-2.675-27.544c3.108,2.022,7.282,2.2,7.282,2.2
					s-5.419,18.102,5.073,23.062C209.56,17.155,202.056,17.438,202.056,17.438z"/>
				<path style="fill:#F7D665;" d="M434.587,102.838c0,0-14.091,2.435-25.763-10.107c3.212-1.854,5.265-5.493,5.265-5.493
					s13.675,13.04,22.854,5.939C437.737,96.022,434.587,102.838,434.587,102.838z"/>
				<path style="fill:#00D08F;" d="M196.556,96.707c0,0-14.211,18.191-41.771,15.848c1.831-5.699,0.337-12.277,0.337-12.277
					s30.496,0.766,33.774-17.684C192.933,85.136,196.556,96.707,196.556,96.707z"/>
				<path style="fill:#25DFE8;" d="M280.308-0.69c0,0-14.211,18.191-41.771,15.848c1.831-5.699,0.337-12.277,0.337-12.277
					s30.496,0.766,33.775-17.684C276.685-12.26,280.308-0.69,280.308-0.69z"/>
				<path style="fill:#F7D665;" d="M185.751,206.451c0,0-9.029,1.732-11.151,4.489c5.605,1.556,8.657,6.066,10.308,10.915
					l9.198-2.463C190.925,211.066,185.751,206.451,185.751,206.451z"/>
				<path style="fill:#F7D665;" d="M42.289,170.508c0,0-9.029,1.732-11.151,4.489c5.604,1.556,8.657,6.066,10.308,10.915
					l9.198-2.463C47.463,175.124,42.289,170.508,42.289,170.508z"/>
				<path style="fill:#F7D665;" d="M132.944,343.718c0,0-5.408-7.436-8.806-8.184c0.975,5.734-1.809,10.416-5.494,13.971
					l6.142,7.277C130.966,350.364,132.944,343.718,132.944,343.718z"/>
				<path style="fill:#10B9BC;" d="M169.856,284.913c1.976,5.806,1.432,12.22,1.432,12.22s4.081-0.454,7.51,0.986
					c0.9-6.038-0.055-11.147-1.592-15.174L169.856,284.913z"/>
				<path style="fill:#10B9BC;" d="M24.236,208.533c1.976,5.806,1.432,12.22,1.432,12.22s4.081-0.454,7.51,0.986
					c0.9-6.038-0.055-11.148-1.592-15.174L24.236,208.533z"/>
				<polygon style="fill:#00D08F;" points="113.078,311.518 100.893,289.598 125.794,297.75 				"/>
				<polygon style="fill:#FB639E;" points="192.515,261.229 188.12,252.363 196.12,252.561 				"/>
				<polygon style="fill:#FBD45D;" points="116.376,190.017 105.388,183.49 113.889,179.521 				"/>
				<polygon style="fill:#0FB8CB;" points="46.386,314.395 35.396,307.869 43.898,303.898 				"/>
				<polygon style="fill:#0FB8CB;" points="244.19,377.296 234.251,385.329 226.972,370.136 				"/>
				<polygon style="fill:#0FB8CB;" points="298.254,37.41 288.314,45.443 281.036,30.25 				"/>
				<polygon style="fill:#0FB8CB;" points="130.765,258.835 120.824,266.869 122.713,246.725 				"/>
				<polygon style="fill:#F7D665;" points="123.77,122.218 116.427,116.972 109.168,122.335 111.889,113.73 104.546,108.484 
					113.57,108.413 116.29,99.808 119.147,108.368 128.171,108.296 120.913,113.658 				"/>
				<polygon style="fill:#00D08F;" points="337.224,15.899 334.108,7.431 325.091,7.776 332.183,2.196 329.067,-6.272 
					336.565,-1.252 343.657,-6.832 341.2,1.851 348.699,6.871 339.682,7.216 				"/>
				<polygon style="fill:#FB639E;" points="382.569,286.349 380.417,280.497 374.186,280.736 379.086,276.88 376.934,271.028 
					382.114,274.497 387.015,270.642 385.317,276.642 390.499,280.109 384.268,280.349 				"/>
				<polygon style="fill:#00D08F;" points="263.079,95.092 260.927,89.24 254.696,89.479 259.596,85.623 257.443,79.771 
					262.624,83.24 267.524,79.385 265.827,85.385 271.009,88.853 264.777,89.092 				"/>
				<polygon style="fill:#25DFE8;" points="258.446,431.333 256.294,425.481 250.063,425.721 254.963,421.864 252.811,416.013 
					257.991,419.481 262.892,415.626 261.194,421.626 266.376,425.094 260.145,425.333 				"/>
				<g>
					<g>
						<polygon style="fill:#0FB8CB;" points="195.811,401.366 199.292,396.313 201.169,405.842 						"/>
						<polygon style="fill:#0FB8CB;" points="16.017,353.791 19.497,348.74 21.373,358.269 						"/>
						<polygon style="fill:#FB639E;" points="119.483,378.368 123.387,383.1 113.71,382.292 						"/>
						<polygon style="fill:#FB639E;" points="67.261,340.973 71.165,345.705 61.487,344.897 						"/>
						<polygon style="fill:#FB639E;" points="282.738,366.141 286.643,370.873 276.964,370.065 						"/>
						<polygon style="fill:#F7D665;" points="144.756,424.712 149.191,424.015 144.849,429.305 						"/>
						
							<rect x="151.236" y="374.98" transform="matrix(0.917 -0.3988 0.3988 0.917 -137.4412 93.6924)" style="fill:#F7D665;" width="10.463" height="4.408"/>
					</g>
					<g>
						<polygon style="fill:#0FB8CB;" points="308.338,331.693 304.482,336.465 303.338,326.822 						"/>
						<polygon style="fill:#FB639E;" points="382.691,360.442 379.159,355.426 388.749,356.969 						"/>
						<polygon style="fill:#FB639E;" points="218.979,360.189 215.447,355.173 225.035,356.716 						"/>
						<polygon style="fill:#F7D665;" points="361.024,312.308 356.55,312.663 361.282,307.72 						"/>
						
							<rect x="340.494" y="356.599" transform="matrix(0.9446 -0.3281 0.3281 0.9446 -98.5849 133.2945)" style="fill:#F7D665;" width="10.463" height="4.408"/>
					</g>
				</g>
				<g>
					<g>
						<polygon style="fill:#0FB8CB;" points="208.664,308.214 212.145,303.16 214.021,312.69 						"/>
						<polygon style="fill:#0FB8CB;" points="28.869,260.639 32.349,255.588 34.226,265.116 						"/>
						<polygon style="fill:#FB639E;" points="132.335,285.216 136.239,289.947 126.562,289.14 						"/>
						<polygon style="fill:#FB639E;" points="52.159,244.604 56.063,249.336 46.386,248.529 						"/>
						<polygon style="fill:#FB639E;" points="301.091,250.465 308.338,259.673 295.316,254.389 						"/>
						<polygon style="fill:#F7D665;" points="157.608,331.56 162.044,330.862 157.702,336.152 						"/>
						
							<rect x="164.088" y="281.827" transform="matrix(0.917 -0.3988 0.3988 0.917 -99.2254 91.0898)" style="fill:#F7D665;" width="10.463" height="4.408"/>
						
							<rect x="71.778" y="307.922" transform="matrix(0.9894 -0.1452 0.1452 0.9894 -44.6716 14.0552)" style="fill:#00D08F;" width="4.407" height="10.464"/>
					</g>
					<g>
						<polygon style="fill:#0FB8CB;" points="321.19,238.541 317.335,243.313 316.19,233.67 						"/>
						<polygon style="fill:#0FB8CB;" points="496.836,299.682 492.981,304.453 491.837,294.81 						"/>
						<polygon style="fill:#FB639E;" points="395.544,267.29 392.012,262.273 401.602,263.816 						"/>
						<polygon style="fill:#FB639E;" points="444.764,308.556 441.23,303.539 450.819,305.084 						"/>
						<polygon style="fill:#00D08F;" points="188.081,234.286 184.55,229.27 194.138,230.814 						"/>
						<polygon style="fill:#F7D665;" points="373.877,219.155 369.402,219.511 374.135,214.567 						"/>
						
							<rect x="353.347" y="263.447" transform="matrix(0.9447 -0.3281 0.3281 0.9447 -67.3073 132.3457)" style="fill:#F7D665;" width="10.463" height="4.408"/>
						
							<rect x="453.654" y="238.649" transform="matrix(0.9976 -0.0696 0.0696 0.9976 -15.8619 32.3041)" style="fill:#00D08F;" width="4.407" height="10.463"/>
					</g>
				</g>
				<g>
					<g>
						<polygon style="fill:#0FB8CB;" points="210.56,109.009 213.698,104.453 215.39,113.045 						"/>
						<polygon style="fill:#0FB8CB;" points="48.438,66.111 51.576,61.556 53.269,70.147 						"/>
						<polygon style="fill:#FB639E;" points="141.734,88.272 145.254,92.539 136.528,91.81 						"/>
						<polygon style="fill:#FB639E;" points="94.646,54.553 98.166,58.82 89.439,58.091 						"/>
						<polygon style="fill:#FB639E;" points="288.942,77.247 292.463,81.513 283.735,80.785 						"/>
						<polygon style="fill:#F7D665;" points="164.523,130.06 168.522,129.431 164.607,134.202 						"/>
						
							<rect x="170.366" y="85.217" transform="matrix(0.917 -0.3989 0.3989 0.917 -20.2525 77.0713)" style="fill:#F7D665;" width="9.435" height="3.974"/>
						
							<rect x="87.129" y="108.746" transform="matrix(0.9894 -0.1451 0.1451 0.9894 -15.5222 14.1334)" style="fill:#00D08F;" width="3.974" height="9.435"/>
					</g>
					<g>
						<polygon style="fill:#0FB8CB;" points="324.324,37.882 315.889,42.926 314.856,34.23 						"/>
						<polygon style="fill:#0FB8CB;" points="470.405,101.315 466.93,105.618 465.897,96.923 						"/>
						<polygon style="fill:#FB639E;" points="379.07,72.108 375.885,67.585 384.532,68.977 						"/>
						<polygon style="fill:#FB639E;" points="423.451,109.318 420.266,104.795 428.912,106.187 						"/>
						<polygon style="fill:#FB639E;" points="231.45,71.879 228.266,67.356 236.911,68.748 						"/>
						<polygon style="fill:#F7D665;" points="359.533,28.704 355.498,29.026 359.766,24.568 						"/>
						
							<rect x="341.021" y="68.643" transform="matrix(0.9447 -0.328 0.328 0.9447 -4.0401 117.3063)" style="fill:#F7D665;" width="9.435" height="3.975"/>
						
							<rect x="431.468" y="46.283" transform="matrix(0.9976 -0.0694 0.0694 0.9976 -2.4942 30.2023)" style="fill:#00D08F;" width="3.973" height="9.435"/>
					</g>
				</g>
				<g>
					<g>
						<polygon style="fill:#0FB8CB;" points="203.833,191.934 206.972,187.378 208.664,195.971 						"/>
						<polygon style="fill:#0FB8CB;" points="37.015,155.42 4.466,153.635 6.158,162.226 						"/>
						<polygon style="fill:#FB639E;" points="135.008,171.197 138.528,175.464 129.802,174.735 						"/>
						<polygon style="fill:#FB639E;" points="115.669,142.493 119.189,146.76 110.463,146.032 						"/>
						<polygon style="fill:#FB639E;" points="282.216,160.172 285.736,164.439 277.009,163.71 						"/>
						<polygon style="fill:#F7D665;" points="157.796,212.985 161.795,212.356 157.88,217.127 						"/>
						
							<rect x="163.639" y="168.143" transform="matrix(0.917 -0.3988 0.3988 0.917 -53.8846 81.2654)" style="fill:#F7D665;" width="9.435" height="3.974"/>
						
							<rect x="62.653" y="201.733" transform="matrix(0.9894 -0.1451 0.1451 0.9894 -29.2778 11.567)" style="fill:#00D08F;" width="3.974" height="9.435"/>
					</g>
					<g>
						<polygon style="fill:#0FB8CB;" points="296.982,116.285 293.506,120.588 292.474,111.892 						"/>
						<polygon style="fill:#0FB8CB;" points="463.679,184.241 460.203,188.544 459.171,179.848 						"/>
						<polygon style="fill:#FB639E;" points="372.344,155.033 369.158,150.51 377.806,151.902 						"/>
						<polygon style="fill:#FB639E;" points="416.725,192.243 413.539,187.72 422.185,189.112 						"/>
						<polygon style="fill:#FB639E;" points="224.723,154.805 221.539,150.282 230.185,151.673 						"/>
						<polygon style="fill:#F7D665;" points="352.807,111.629 348.771,111.951 353.039,107.493 						"/>
						
							<rect x="334.294" y="151.568" transform="matrix(0.9447 -0.328 0.328 0.9447 -31.611 119.6879)" style="fill:#F7D665;" width="9.435" height="3.975"/>
					</g>
				</g>
				<g>
					<g>
						<polygon style="fill:#0FB8CB;" points="198.103,272.805 201.756,268.652 202.424,277.383 						"/>
						<polygon style="fill:#0FB8CB;" points="42.169,211.093 45.822,206.94 46.49,215.671 						"/>
						<polygon style="fill:#FB639E;" points="132.202,244.099 135.194,248.751 126.615,246.999 						"/>
						<polygon style="fill:#FB639E;" points="85.127,215.653 88.12,220.306 79.54,218.553 						"/>
						<polygon style="fill:#FB639E;" points="279.684,250.505 282.676,255.158 274.096,253.406 						"/>
						<polygon style="fill:#F7D665;" points="149.905,288.283 153.951,288.129 149.501,292.404 						"/>
						
							<rect x="160.727" y="244.984" transform="matrix(0.9576 -0.2881 0.2881 0.9576 -64.1298 58.1267)" style="fill:#F7D665;" width="9.435" height="3.974"/>
						
							<rect x="74.994" y="258.194" transform="matrix(0.9996 -0.027 0.027 0.9996 -7.078 2.1768)" style="fill:#00D08F;" width="3.974" height="9.434"/>
					</g>
					<g>
						<polygon style="fill:#0FB8CB;" points="306.268,222.381 302.309,226.245 302.309,217.488 						"/>
						<polygon style="fill:#0FB8CB;" points="457.043,295.799 453.084,299.662 453.084,290.906 						"/>
						<polygon style="fill:#FB639E;" points="369.789,256.027 367.158,251.16 375.582,253.563 						"/>
						<polygon style="fill:#FB639E;" points="409.473,298.211 406.844,293.344 415.266,295.744 						"/>
						<polygon style="fill:#FB639E;" points="241.629,232.148 239,227.281 247.421,229.682 						"/>
						<polygon style="fill:#F7D665;" points="355.504,210.624 351.459,210.468 356.223,206.544 						"/>
						
							<rect x="332.146" y="248.644" transform="matrix(0.9768 -0.2143 0.2143 0.9768 -45.8773 77.9968)" style="fill:#F7D665;" width="9.435" height="3.974"/>
						
							<rect x="421.565" y="239.492" transform="matrix(0.0486 -0.9988 0.9988 0.0486 164.3514 655.5092)" style="fill:#00D08F;" width="9.435" height="3.974"/>
					</g>
				</g>
				<g>
					<g>
						<polygon style="fill:#0FB8CB;" points="215.715,179.021 220.27,182.159 211.678,183.851 						"/>
						<polygon style="fill:#0FB8CB;" points="258.613,16.899 263.168,20.037 254.576,21.729 						"/>
						<polygon style="fill:#FB639E;" points="221.557,123.771 217.29,127.29 218.02,118.564 						"/>
						<polygon style="fill:#FB639E;" points="270.171,63.106 265.904,66.627 266.633,57.9 						"/>
						<polygon style="fill:#FB639E;" points="247.477,257.403 243.211,260.924 243.938,252.196 						"/>
						<polygon style="fill:#F7D665;" points="181.498,134.983 182.126,138.982 177.355,135.067 						"/>
						
							<rect x="235.532" y="138.827" transform="matrix(0.917 -0.3989 0.3989 0.917 -37.5435 106.6553)" style="fill:#F7D665;" width="3.974" height="9.434"/>
						
							<rect x="205.842" y="29.533" transform="matrix(0.9894 -0.1452 0.1452 0.9894 -2.3453 30.9135)" style="fill:#00D08F;" width="9.435" height="3.974"/>
					</g>
					<g>
						<polygon style="fill:#0FB8CB;" points="278.539,280.486 274.235,277.01 282.932,275.978 						"/>
						<polygon style="fill:#0FB8CB;" points="223.408,438.865 219.105,435.391 227.801,434.357 						"/>
						<polygon style="fill:#FB639E;" points="252.615,347.531 257.139,344.346 255.747,352.993 						"/>
						<polygon style="fill:#FB639E;" points="215.406,391.912 219.929,388.727 218.537,397.373 						"/>
						<polygon style="fill:#FB639E;" points="252.844,199.911 257.367,196.727 255.976,205.372 						"/>
						<polygon style="fill:#F7D665;" points="296.02,327.994 295.697,323.959 300.155,328.227 						"/>
						
							<rect x="252.106" y="309.482" transform="matrix(0.9447 -0.328 0.328 0.9447 -88.9986 100.7221)" style="fill:#F7D665;" width="3.975" height="9.435"/>
						
							<rect x="269.006" y="399.929" transform="matrix(0.9976 -0.0695 0.0695 0.9976 -27.2877 20.0086)" style="fill:#00D08F;" width="9.435" height="3.974"/>
					</g>
				</g>
				<g>
					<g>
						<polygon style="fill:#0FB8CB;" points="222.499,75.948 225.727,71.455 227.248,80.08 						"/>
						<polygon style="fill:#0FB8CB;" points="61.263,29.831 64.491,25.34 66.012,33.963 						"/>
						<polygon style="fill:#FB639E;" points="160.06,45.135 163.494,49.47 154.784,48.567 						"/>
						<polygon style="fill:#FB639E;" points="107.691,19.195 111.126,23.532 102.416,22.63 						"/>
						<polygon style="fill:#FB639E;" points="301.498,45.752 304.933,50.087 296.222,49.186 						"/>
						<polygon style="fill:#F7D665;" points="176.052,96.078 180.063,95.529 176.053,100.221 						"/>
						
							<rect x="182.746" y="51.455" transform="matrix(0.9247 -0.3806 0.3806 0.9247 -6.2316 75.3681)" style="fill:#F7D665;" width="9.435" height="3.974"/>
						
							<rect x="99.004" y="73.267" transform="matrix(0.9921 -0.1256 0.1256 0.9921 -8.9933 13.2988)" style="fill:#00D08F;" width="3.974" height="9.435"/>
					</g>
					<g>
						<polygon style="fill:#0FB8CB;" points="311.981,19.512 308.42,23.746 307.56,15.031 						"/>
						<polygon style="fill:#0FB8CB;" points="482.445,73.427 478.885,77.66 478.026,68.945 						"/>
						<polygon style="fill:#FB639E;" points="391.71,42.408 388.615,37.822 397.233,39.385 						"/>
						<polygon style="fill:#FB639E;" points="435.342,80.493 432.247,75.908 440.863,77.471 						"/>
						<polygon style="fill:#FB639E;" points="244.123,39.242 241.03,34.656 249.646,36.219 						"/>
						<polygon style="fill:#F7D665;" points="373.041,-1.376 369,-1.135 373.355,-5.507 						"/>
						
							<rect x="353.697" y="38.279" transform="matrix(0.9511 -0.309 0.309 0.9511 5.0996 112.7304)" style="fill:#F7D665;" width="9.434" height="3.975"/>
						
							<rect x="444.518" y="17.668" transform="matrix(0.9988 -0.0495 0.0495 0.9988 -0.5608 22.136)" style="fill:#00D08F;" width="3.974" height="9.435"/>
					</g>
				</g>
				<g>
					<g>
						<polygon style="fill:#0FB8CB;" points="284.471,95.088 281.047,101.405 279.909,88.779 						"/>
						<polygon style="fill:#0FB8CB;" points="447.734,167.113 444.31,173.429 437.523,164.875 						"/>
						<polygon style="fill:#FB639E;" points="341.572,119.931 338.333,113.411 346.994,115.285 						"/>
						<polygon style="fill:#FB639E;" points="386.397,173.256 383.158,166.735 391.819,168.608 						"/>
						<polygon style="fill:#FB639E;" points="193.96,122.177 190.721,115.658 199.383,117.53 						"/>
						<polygon style="fill:#F7D665;" points="321.516,57.169 317.484,57.709 321.697,51.151 						"/>
						<polygon style="fill:#F7D665;" points="320.748,84.687 322.096,90.122 313.22,94.773 311.872,89.337 						"/>
						<polygon style="fill:#00D08F;" points="398.064,94.896 394.103,95.366 393.335,81.693 397.296,81.224 						"/>
					</g>
					<g>
						<polygon style="fill:#0FB8CB;" points="168.929,165.091 172.675,159.172 173.146,171.886 						"/>
						<polygon style="fill:#0FB8CB;" points="6.541,44.696 10.286,38.778 10.757,51.491 						"/>
						<polygon style="fill:#FB639E;" points="103.688,121.213 106.576,128.075 98.036,125.248 						"/>
						<polygon style="fill:#FB639E;" points="61.79,63.078 64.678,69.938 56.139,67.111 						"/>
						<polygon style="fill:#FB639E;" points="250.989,135.335 253.876,142.196 245.337,139.369 						"/>
						<polygon style="fill:#F7D665;" points="120.396,186.017 124.443,185.927 119.898,191.997 						"/>
						<polygon style="fill:#F7D665;" points="132.839,131.084 131.78,125.514 140.874,121.86 141.933,127.43 						"/>
						<polygon style="fill:#00D08F;" points="46.047,139.917 50.021,139.886 50.071,153.605 46.098,153.635 						"/>
					</g>
				</g>
			</g>
		</g>
	</g>
</g>
</svg>
